<?xml version="1.0" encoding="utf-8"?>
<!-- Generator: Adobe Illustrator 21.1.0, SVG Export Plug-In . SVG Version: 6.00 Build 0)  -->
<svg version="1.1" id="Layer_1" xmlns="http://www.w3.org/2000/svg" xmlns:xlink="http://www.w3.org/1999/xlink" x="0px" y="0px"
	 viewBox="0 0 256.5 175.5" style="enable-background:new 0 0 256.5 175.5;" xml:space="preserve">
<style type="text/css">
	.st0{fill:#FFFFFF;}
</style>
<title>Asset 3</title>
<g>
	<polygon class="st0" points="216.8,112.7 200.9,89.5 157.6,26.4 154.8,22.4 139.9,0.7 110.9,0.7 110.9,20.3 102.1,7.6 97.4,0.7 
		68.3,0.7 68.3,39.1 97.6,83.4 97.6,43.9 97.9,43.9 133.3,102.9 140.1,114.2 140.1,102.9 140.1,65.1 140.1,43.9 140.4,43.9 
		167.9,89.7 183.3,115.4 194.8,115.4 218.7,115.4 	"/>
	<polygon class="st0" points="97.6,99.1 68.3,56.6 30.4,1.2 1.3,1.2 1.3,23.6 1.3,115.9 30.5,115.9 30.5,67.9 30.5,44.4 30.8,44.4 
		68.3,106.6 73.6,115.4 74,115.9 109.1,115.9 	"/>
	<g>
		<path class="st0" d="M196.8,26.4c4.9,0,9.1,0.8,12.6,2.4c3.5,1.6,6.4,3.8,8.6,6.7c2.2,2.8,3.9,6.1,5,10c1.1,3.9,1.6,8.1,1.6,12.7
			c0,4.6-0.5,8.8-1.5,12.7c-1,3.9-2.7,7.2-4.9,10c-1.9,2.4-4.3,4.3-7.1,5.7l15.4,22.4c4.6-2.2,8.6-4.9,12.2-8.3
			c10.3-9.7,15.4-24.1,15.4-43c0-6.4-0.8-12.7-2.4-18.7c-1.6-6.1-4.3-11.7-8.1-17c-3.3-4.5-6.8-8.1-10.6-10.9c-3.8-2.8-7.8-5-12-6.5
			c-4.2-1.5-8.7-2.5-13.5-3.1c-4.7-0.5-9.7-0.8-14.9-0.8h-37.9v0.6l16.6,25.1H196.8z"/>
	</g>
	<g>
		<path class="st0" d="M4.5,136.7l-1.1,2.7H1.3l5.2-11.9h2l5.2,11.9h-2.1l-1.1-2.7H4.5z M7.5,129.6l-2.2,5.3h4.5L7.5,129.6z"/>
		<path class="st0" d="M21.9,127.5c3.6,0,6.1,2.5,6.1,5.9c0,3.4-2.6,5.9-6.2,5.9h-4.8v-11.9H21.9z M19.1,137.6H22
			c2.3,0,4.1-1.7,4.1-4.1c0-2.4-1.8-4.1-4.1-4.1h-2.8V137.6z"/>
		<path class="st0" d="M37.2,135.8c-0.2,0-0.4,0-0.5,0h-2.8v3.6h-2v-11.9h4.8c3,0,4.8,1.5,4.8,4c0,1.9-0.9,3.2-2.5,3.8l2.7,4h-2.3
			L37.2,135.8z M36.7,134c1.8,0,2.9-0.8,2.9-2.4c0-1.6-1-2.3-2.9-2.3h-2.8v4.7H36.7z"/>
		<path class="st0" d="M45.8,139.4v-11.9h2v11.9H45.8z"/>
		<path class="st0" d="M54.3,136.7l-1.1,2.7h-2.1l5.2-11.9h2l5.2,11.9h-2.1l-1.1-2.7H54.3z M57.3,129.6l-2.2,5.3h4.5L57.3,129.6z"/>
		<path class="st0" d="M75.1,139.4l-6.3-8.5v8.5h-2v-11.9h2l6.3,8.5v-8.5h2v11.9H75.1z"/>
		<path class="st0" d="M98.6,139.4l0-8.9l-3.7,7.6h-1.3l-3.7-7.6v8.9h-1.9v-11.9h2.4l3.9,7.9l3.9-7.9h2.4v11.9H98.6z"/>
		<path class="st0" d="M105.3,139.4v-11.9h2v11.9H105.3z"/>
		<path class="st0" d="M121.9,129.3l-1.2,1.5c-0.9-0.9-2.1-1.5-3.3-1.5c-2.4,0-4.2,1.8-4.2,4.2c0,2.3,1.9,4.2,4.2,4.2
			c1.2,0,2.4-0.5,3.3-1.4l1.2,1.3c-1.2,1.2-2.9,1.9-4.6,1.9c-3.5,0-6.2-2.6-6.2-6c0-3.4,2.7-6,6.2-6
			C119,127.5,120.7,128.2,121.9,129.3z"/>
		<path class="st0" d="M133.9,139.4v-4.9h-6.3v4.9h-2v-11.9h2v5.1h6.3v-5.1h2v11.9H133.9z"/>
		<path class="st0" d="M142.3,136.7l-1.1,2.7h-2.1l5.2-11.9h2l5.2,11.9h-2.1l-1.1-2.7H142.3z M145.3,129.6l-2.2,5.3h4.5L145.3,129.6
			z"/>
		<path class="st0" d="M156.9,129.3v3.2h5.8v1.8h-5.8v3.3h6.7v1.8h-8.7v-11.9h8.5v1.8H156.9z"/>
		<path class="st0" d="M174.8,137.6v1.8h-7.1v-11.9h2v10H174.8z"/>
		<path class="st0" d="M189.3,127.5c3.6,0,6.1,2.5,6.1,5.9c0,3.4-2.6,5.9-6.2,5.9h-4.8v-11.9H189.3z M186.4,137.6h2.9
			c2.3,0,4.1-1.7,4.1-4.1c0-2.4-1.8-4.1-4.1-4.1h-2.8V137.6z"/>
		<path class="st0" d="M199.3,139.4v-11.9h2v11.9H199.3z"/>
		<path class="st0" d="M215.8,129.3l-1.2,1.5c-0.9-0.9-2.1-1.5-3.3-1.5c-2.4,0-4.2,1.8-4.2,4.2c0,2.3,1.9,4.2,4.2,4.2
			c1.2,0,2.4-0.5,3.3-1.4l1.2,1.3c-1.2,1.2-2.9,1.9-4.6,1.9c-3.5,0-6.2-2.6-6.2-6c0-3.4,2.7-6,6.2-6
			C213,127.5,214.7,128.2,215.8,129.3z"/>
		<path class="st0" d="M223.6,134.1l-2,2.2v3h-2v-11.9h2v6.1l5.7-6.1h2.4l-4.6,5.1l4.9,6.8h-2.4L223.6,134.1z"/>
		<path class="st0" d="M235.4,129.3v3.2h5.8v1.8h-5.8v3.3h6.7v1.8h-8.7v-11.9h8.5v1.8H235.4z"/>
		<path class="st0" d="M251.1,139.4h-2v-3.9l-4.4-8h2l3.4,5.8l3.3-5.8h2l-4.4,7.9V139.4z"/>
	</g>
	<g>
		<path class="st0" d="M171.5,174.7H1.1v-23.6h170.4V174.7z M1.6,174.2H171v-22.6H1.6V174.2z"/>
	</g>
	<g>
		<path class="st0" d="M12.9,167l-3.3-8.1h1l2.8,7l2.8-7h1l-3.3,8.1H12.9z"/>
		<path class="st0" d="M22,167v-8.1h0.9v8.1H22z"/>
		<path class="st0" d="M33.8,159.6l-0.4,0.9c-0.7-0.5-1.6-0.7-2.2-0.7c-1,0-1.7,0.4-1.7,1.1c0,2.1,4.6,1,4.6,3.9
			c0,1.4-1.2,2.2-2.9,2.2c-1.2,0-2.3-0.5-3.1-1.2l0.4-0.8c0.8,0.7,1.8,1.1,2.7,1.1c1.2,0,1.9-0.5,1.9-1.3c0-2.1-4.6-1-4.6-3.9
			c0-1.3,1.1-2.1,2.8-2.1C32.2,158.8,33.2,159.1,33.8,159.6z"/>
		<path class="st0" d="M46,163.6c0,2.1-1.3,3.4-3.4,3.4c-2.1,0-3.4-1.3-3.4-3.4v-4.8h0.9v4.8c0,1.6,1,2.5,2.5,2.5
			c1.5,0,2.5-0.9,2.5-2.5v-4.8H46V163.6z"/>
		<path class="st0" d="M52.3,164.9l-0.9,2.1h-1l3.6-8.1h1l3.6,8.1h-1l-0.9-2.1H52.3z M54.5,159.9l-1.8,4.1h3.6L54.5,159.9z"/>
		<path class="st0" d="M67.9,166.1v0.9h-4.5v-8.1h0.9v7.2H67.9z"/>
		<path class="st0" d="M82.8,158.8c2.4,0,4.2,1.8,4.2,4.1s-1.8,4.1-4.2,4.1h-3.2v-8.1H82.8z M80.4,166.1h2.4c1.8,0,3.2-1.4,3.2-3.2
			c0-1.8-1.4-3.2-3.3-3.2h-2.3V166.1z"/>
		<path class="st0" d="M93.1,159.7v2.7h4.1v0.9h-4.1v2.8h4.7v0.9h-5.7v-8.1h5.5v0.9H93.1z"/>
		<path class="st0" d="M108.1,159.6l-0.4,0.9c-0.7-0.5-1.6-0.7-2.2-0.7c-1,0-1.7,0.4-1.7,1.1c0,2.1,4.6,1,4.6,3.9
			c0,1.4-1.2,2.2-2.9,2.2c-1.2,0-2.3-0.5-3.1-1.2l0.4-0.8c0.8,0.7,1.8,1.1,2.7,1.1c1.2,0,1.9-0.5,1.9-1.3c0-2.1-4.6-1-4.6-3.9
			c0-1.3,1.1-2.1,2.8-2.1C106.5,158.8,107.5,159.1,108.1,159.6z"/>
		<path class="st0" d="M113.7,167v-8.1h0.9v8.1H113.7z"/>
		<path class="st0" d="M127.1,163v2.9c-0.8,0.6-1.9,1.1-3,1.1c-2.4,0-4.2-1.8-4.2-4.1s1.9-4.1,4.3-4.1c1.1,0,2.2,0.4,3,1.1l-0.5,0.7
			c-0.7-0.6-1.6-0.9-2.5-0.9c-1.9,0-3.3,1.4-3.3,3.2c0,1.8,1.5,3.2,3.3,3.2c0.7,0,1.5-0.3,2.1-0.7V163H127.1z"/>
		<path class="st0" d="M138.6,167l-4.9-6.5v6.5h-0.9v-8.1h1l4.9,6.5v-6.5h0.9v8.1H138.6z"/>
		<path class="st0" d="M146.4,159.7v2.7h4.1v0.9h-4.1v2.8h4.7v0.9h-5.7v-8.1h5.5v0.9H146.4z"/>
		<path class="st0" d="M160.2,164.4c-0.2,0-0.4,0-0.5,0h-2.2v2.6h-0.9v-8.1h3.1c2,0,3.2,1,3.2,2.7c0,1.3-0.6,2.2-1.8,2.6l1.9,2.8
			h-1.1L160.2,164.4z M159.6,163.5c1.5,0,2.3-0.6,2.3-1.9c0-1.2-0.8-1.9-2.3-1.9h-2.2v3.8H159.6z"/>
	</g>
</g>
</svg>
