<svg xmlns="http://www.w3.org/2000/svg" viewBox="0 0 256.47 175.46"><defs><style>.cls-1{fill:#fff;}.cls-2{fill:none;stroke:#fff;stroke-miterlimit:10;stroke-width:0.5px;}</style></defs><title>Asset 3</title><g id="Layer_2" data-name="Layer 2"><g id="Layer_1-2" data-name="Layer 1"><polygon class="cls-1" points="217.56 112.94 201.5 89.55 157.8 25.91 155 21.83 140.01 0 110.71 0 110.71 19.74 101.89 6.91 97.14 0 67.85 0 67.85 38.73 97.3 83.36 97.3 43.48 97.6 43.48 133.33 103.02 140.16 114.42 140.16 103.02 140.16 64.89 140.16 43.48 140.47 43.48 168.25 89.75 183.81 115.65 195.4 115.65 219.43 115.65 217.56 112.94"/><polygon class="cls-1" points="97.3 99.19 67.85 56.29 29.55 0.52 0.25 0.52 0.25 23.09 0.25 116.17 29.7 116.17 29.7 67.71 29.7 44.01 30.01 44.01 67.85 106.8 73.18 115.65 73.5 116.17 108.96 116.17 97.3 99.19"/><path class="cls-1" d="M197.4,25.9a30.07,30.07,0,0,1,12.72,2.47,23.76,23.76,0,0,1,8.72,6.71,27.83,27.83,0,0,1,5,10.1A47.93,47.93,0,0,1,225.47,58a50.33,50.33,0,0,1-1.54,12.8A26.93,26.93,0,0,1,219,80.88a21.93,21.93,0,0,1-7.13,5.79l15.53,22.59a48.1,48.1,0,0,0,12.27-8.33q15.57-14.72,15.57-43.4a72.55,72.55,0,0,0-2.47-18.89,53.43,53.43,0,0,0-8.17-17.19,50.91,50.91,0,0,0-10.64-11,47.11,47.11,0,0,0-12.11-6.56A58.14,58.14,0,0,0,208.28.77a141.14,141.14,0,0,0-15-.77H155V.6l16.7,25.3Z"/><path class="cls-1" d="M3.51,137.1l-1.14,2.7H.27l5.28-12H7.61l5.22,12H10.68l-1.14-2.7Zm3-7.1-2.25,5.31H8.77Z"/><path class="cls-1" d="M21,127.85a6,6,0,1,1-.05,12H16.13v-12ZM18.14,138h2.94a4,4,0,0,0,4.1-4.15A4.08,4.08,0,0,0,21,129.66H18.14Z"/><path class="cls-1" d="M36.46,136.18c-.17,0-.36,0-.55,0H33.07v3.6h-2v-12h4.85c3.06,0,4.82,1.49,4.82,4.08a3.84,3.84,0,0,1-2.48,3.88l2.68,4H38.64Zm-.55-1.79c1.84,0,2.9-.79,2.9-2.41s-1.06-2.32-2.9-2.32H33.07v4.73Z"/><path class="cls-1" d="M45.11,139.8v-12h2v12Z"/><path class="cls-1" d="M53.66,137.1l-1.14,2.7h-2.1l5.28-12h2.07l5.22,12H60.83l-1.14-2.7Zm3-7.1-2.25,5.31h4.51Z"/><path class="cls-1" d="M74.65,139.8l-6.37-8.57v8.57h-2v-12h2l6.4,8.59v-8.59h2v12Z"/><path class="cls-1" d="M98.38,139.8l0-8.93-3.77,7.68H93.28l-3.77-7.68v8.93H87.61v-12H90l3.94,7.94,3.93-7.94h2.37v12Z"/><path class="cls-1" d="M105.1,139.8v-12h2v12Z"/><path class="cls-1" d="M121.8,129.64l-1.18,1.47a4.67,4.67,0,0,0-3.33-1.52,4.21,4.21,0,1,0,0,8.42,4.94,4.94,0,0,0,3.33-1.42l1.2,1.33a6.78,6.78,0,0,1-4.63,2,6,6,0,1,1,.07-12.09A6.6,6.6,0,0,1,121.8,129.64Z"/><path class="cls-1" d="M133.92,139.8v-5h-6.33v5h-2v-12h2V133h6.33v-5.19h2v12Z"/><path class="cls-1" d="M142.47,137.1l-1.14,2.7h-2.1l5.28-12h2.07l5.22,12h-2.15l-1.14-2.7Zm3-7.1-2.25,5.31h4.51Z"/><path class="cls-1" d="M157.09,129.66v3.23h5.84v1.81h-5.84V138h6.73v1.81h-8.74v-12h8.54v1.81Z"/><path class="cls-1" d="M175.17,138v1.83H168v-12h2V138Z"/><path class="cls-1" d="M189.81,127.85a6,6,0,1,1-.05,12h-4.85v-12ZM186.93,138h2.94a4,4,0,0,0,4.1-4.15,4.08,4.08,0,0,0-4.18-4.18h-2.85Z"/><path class="cls-1" d="M199.85,139.8v-12h2v12Z"/><path class="cls-1" d="M216.55,129.64l-1.18,1.47a4.67,4.67,0,0,0-3.33-1.52,4.21,4.21,0,1,0,0,8.42,4.94,4.94,0,0,0,3.33-1.42l1.2,1.33a6.78,6.78,0,0,1-4.63,2,6,6,0,1,1,.07-12.09A6.6,6.6,0,0,1,216.55,129.64Z"/><path class="cls-1" d="M224.36,134.52l-2,2.24v3h-2v-12h2V134l5.7-6.18h2.37L225.78,133l4.93,6.85h-2.42Z"/><path class="cls-1" d="M236.29,129.66v3.23h5.84v1.81h-5.84V138H243v1.81h-8.74v-12h8.54v1.81Z"/><path class="cls-1" d="M252.08,139.8h-2v-3.91l-4.46-8h2l3.42,5.82,3.35-5.82h2l-4.39,8Z"/><path class="cls-1" d="M17.17,164.47a3.15,3.15,0,0,1-3.42,3.41,3.16,3.16,0,0,1-3.45-3.41v-4.82h.94v4.82A2.31,2.31,0,0,0,13.75,167a2.29,2.29,0,0,0,2.49-2.51v-4.82h.94Z"/><path class="cls-1" d="M23,167.83v-8.18h.93v8.18Z"/><path class="cls-1" d="M28.53,169.26l3.65-11H33l-3.66,11Z"/><path class="cls-1" d="M43.8,164.47a3.15,3.15,0,0,1-3.42,3.41,3.16,3.16,0,0,1-3.45-3.41v-4.82h.94v4.82A2.31,2.31,0,0,0,40.38,167a2.29,2.29,0,0,0,2.49-2.51v-4.82h.94Z"/><path class="cls-1" d="M55.8,167.83H54.68l-2.49-3.42-2.47,3.42h-1.1l3-4.21-2.79-4h1.1l2.26,3.16,2.28-3.16h1.1l-2.78,3.93Z"/><path class="cls-1" d="M69.75,167.83l-3.32-8.18h1l2.82,7.09,2.83-7.09h1l-3.34,8.18Z"/><path class="cls-1" d="M78.89,167.83v-8.18h.93v8.18Z"/><path class="cls-1" d="M90.83,160.38l-.4.88a4.22,4.22,0,0,0-2.26-.69c-1.05,0-1.74.4-1.74,1.09,0,2.1,4.61,1,4.59,4,0,1.37-1.2,2.24-3,2.24a4.67,4.67,0,0,1-3.13-1.25l.42-.84a4.07,4.07,0,0,0,2.72,1.16c1.18,0,1.92-.48,1.92-1.26,0-2.15-4.59-1-4.59-3.94,0-1.29,1.13-2.12,2.83-2.12A4.84,4.84,0,0,1,90.83,160.38Z"/><path class="cls-1" d="M103.15,164.47a3.44,3.44,0,0,1-6.87,0v-4.82h.94v4.82a2.5,2.5,0,1,0,5,0v-4.82h.94Z"/><path class="cls-1" d="M109.43,165.76l-.91,2.07h-1l3.67-8.18h1l3.66,8.18h-1l-.91-2.07Zm2.22-5-1.82,4.15h3.67Z"/><path class="cls-1" d="M125.15,166.94v.89h-4.52v-8.18h.93v7.29Z"/><path class="cls-1" d="M140.2,159.65a4.09,4.09,0,1,1,0,8.18h-3.27v-8.18Zm-2.37,7.29h2.38a3.2,3.2,0,1,0,0-6.39h-2.35Z"/><path class="cls-1" d="M150.56,160.55v2.69h4.13v.9h-4.13v2.8h4.77v.89h-5.7v-8.18h5.55v.9Z"/><path class="cls-1" d="M165.77,160.38l-.4.88a4.22,4.22,0,0,0-2.26-.69c-1.05,0-1.74.4-1.74,1.09,0,2.1,4.61,1,4.59,4,0,1.37-1.2,2.24-3,2.24a4.67,4.67,0,0,1-3.13-1.25l.42-.84a4.07,4.07,0,0,0,2.72,1.16c1.18,0,1.92-.48,1.92-1.26,0-2.15-4.59-1-4.59-3.94,0-1.29,1.13-2.12,2.83-2.12A4.84,4.84,0,0,1,165.77,160.38Z"/><path class="cls-1" d="M171.4,167.83v-8.18h.93v8.18Z"/><path class="cls-1" d="M184.85,163.84v3a5.06,5.06,0,0,1-3,1.08,4.13,4.13,0,1,1,0-8.25,4.63,4.63,0,0,1,3,1.12l-.54.7a3.76,3.76,0,0,0-2.48-.95,3.25,3.25,0,1,0,0,6.49,3.91,3.91,0,0,0,2.15-.69v-2.47Z"/><path class="cls-1" d="M196.48,167.83l-4.91-6.57v6.57h-.93v-8.18h1l4.91,6.58v-6.58h.92v8.18Z"/><path class="cls-1" d="M204.38,160.55v2.69h4.13v.9h-4.13v2.8h4.77v.89h-5.7v-8.18H209v.9Z"/><path class="cls-1" d="M218.22,165.23l-.55,0H215.5v2.58h-.93v-8.18h3.11c2,0,3.23,1,3.23,2.75a2.56,2.56,0,0,1-1.83,2.65l1.92,2.78h-1.06Zm-.55-.88c1.48,0,2.33-.65,2.33-1.93s-.84-1.87-2.33-1.87H215.5v3.8Z"/><rect class="cls-2" x="0.25" y="151.87" width="229.51" height="23.33"/></g></g></svg>